<svg width="17" height="12" viewBox="0 0 17 12" fill="none" xmlns="http://www.w3.org/2000/svg">
<path d="M8.26172 1.51172C11.1094 1.51172 13.6406 3.09375 14.8711 5.625C13.6406 8.15625 11.1094 9.77344 8.26172 9.77344C5.41406 9.77344 2.88281 8.15625 1.65234 5.625C2.88281 3.09375 5.41406 1.51172 8.26172 1.51172ZM8.26172 0C4.5 0 1.30078 2.35547 0 5.625C1.30078 8.92969 4.5 11.25 8.26172 11.25C12.0234 11.25 15.2227 8.92969 16.5234 5.625C15.2227 2.35547 12.0234 0 8.26172 0ZM8.26172 3.76172C9.28125 3.76172 10.125 4.60547 10.125 5.625C10.125 6.67969 9.28125 7.52344 8.26172 7.52344C7.24219 7.52344 6.39844 6.67969 6.39844 5.625C6.39844 4.60547 7.24219 3.76172 8.26172 3.76172ZM8.26172 2.25C6.39844 2.25 4.88672 3.76172 4.88672 5.625C4.88672 7.48828 6.39844 9 8.26172 9C10.125 9 11.6367 7.48828 11.6367 5.625C11.6367 3.76172 10.125 2.25 8.26172 2.25Z" fill="#3B82F6"/>
</svg>
